<?xml version="1.0" encoding="UTF-8"?>
<svg viewBox="0 0 80 80" version="1.1" xmlns="http://www.w3.org/2000/svg" xmlns:xlink="http://www.w3.org/1999/xlink">
    <title>地址</title>
    <g id="官网" stroke="none" stroke-width="1" fill="none" fill-rule="evenodd">
        <g id="地址">
            <rect id="矩形备份-28" x="0" y="0" width="80" height="80"></rect>
            <g id="账户地址" transform="translate(17.000000, 12.000000)" fill="#0C6AC1" fill-rule="nonzero">
                <path d="M24,0 C15.1384616,0 8,7.29559746 8,16.3522012 C8,24.5702306 21.7025641,46.1215933 24.0820513,49.8113207 C24.2461538,50.0628931 24.574359,50.0628931 24.7384616,49.8113207 C27.0358975,46.1215933 40,24.654088 40,16.4360587 C40,7.29559746 32.7794872,0 24,0 Z M24,25.1572327 C19.4871795,25.1572327 15.7948718,21.3836478 15.7948718,16.7714884 C15.7948718,12.1593291 19.4871795,8.38574422 24,8.38574422 C28.5128206,8.38574422 32.2051282,12.1593291 32.2051282,16.7714884 C32.2051282,21.3836478 28.5128205,25.1572327 24,25.1572327 Z" id="形状"></path>
                <path d="M23.5,57 C12.1210526,57 0,54.2434184 0,49.2471142 C0,44.8538123 8.82280703,42.9586624 12.6982457,42.3556601 C13.1105263,42.269517 13.6052632,42.6140897 13.6052632,43.0448056 C13.6877193,43.4755214 13.3578947,43.9923805 12.945614,43.9923805 C5.11228071,45.2845281 1.64912284,47.6103939 1.64912284,49.2471142 C1.64912284,52.089839 10.9666667,55.2771365 23.5,55.2771365 C36.0333334,55.2771364 45.3508772,52.089839 45.3508772,49.2471142 C45.3508772,47.3519643 40.8157895,44.8538123 32.1578947,43.733951 C31.745614,43.6478078 31.4157895,43.2170919 31.4157895,42.786376 C31.4982456,42.3556601 31.9105263,41.9249443 32.322807,42.0110874 C41.4754386,43.2170919 47,45.8875303 47,49.2471142 C47,54.2434184 34.8789474,57 23.5,57 Z" id="路径"></path>
            </g>
        </g>
    </g>
</svg>