<?xml version="1.0" encoding="UTF-8"?>
<svg viewBox="0 0 80 80" version="1.1" xmlns="http://www.w3.org/2000/svg" xmlns:xlink="http://www.w3.org/1999/xlink">
    <title>质押</title>
    <defs>
        <filter color-interpolation-filters="auto" id="filter-1">
            <feColorMatrix in="SourceGraphic" type="matrix" values="0 0 0 0 0.000000 0 0 0 0 0.407843 0 0 0 0 0.756863 0 0 0 1.000000 0"></feColorMatrix>
        </filter>
    </defs>
    <g id="官网" stroke="none" stroke-width="1" fill="none" fill-rule="evenodd">
        <g id="质押">
            <rect id="矩形备份-29" x="0" y="0" width="80" height="80"></rect>
            <g filter="url(#filter-1)" id="质押周期">
                <g transform="translate(11.000000, 11.000000)">
                    <path d="M8,11.125 C8,11.553125 9.48854167,12.7208333 31.821875,36.125 C50.7083333,55.9166667 51.75,58 52.7916667,58 C53.8333333,58 58,53.8333333 58,52.7916667 C58,51.75 55.9166667,50.7083333 36.125,31.821875 C12.7208333,9.48854167 11.553125,8 11.125,8 C10.0833333,8 8,10.0833333 8,11.125 Z" id="路径" fill="#000000" fill-rule="nonzero"></path>
                    <path d="M46.3951961,0.867851852 C43.7393815,0.294265016 41.0298916,0.00334809432 38.3123529,0 C17.152451,0 0,17.0831481 0,38.1575556 C0,40.9222222 0.310588235,43.6106296 0.871372549,46.2077407 C5.39215686,25.7777778 25.8823529,5.37037037 46.3951961,0.867851852 Z M7.54901961,53.7037037 L5.39215686,58 L3.23529412,53.7037037 L5.39215686,49.4074074 L7.54901961,53.7037037 Z M52.8431373,5.37037037 L50.6862745,9.66666667 L52.8431373,13.962963 L55,9.66666667 L52.8431373,5.37037037 Z M44.2156863,20.4074074 L42.0588235,24.7037037 L44.2156863,29 L46.372549,24.7037037 L44.2156863,20.4074074 Z M14.0196078,35.4444444 L10.7843137,41.8888889 L14.0196078,48.3333333 L17.254902,41.8888889 L14.0196078,35.4444444 Z" id="形状" fill="#000000" fill-rule="nonzero"></path>
                </g>
            </g>
        </g>
    </g>
</svg>