<?xml version="1.0" encoding="UTF-8"?>
<svg viewBox="0 0 80 80" version="1.1" xmlns="http://www.w3.org/2000/svg" xmlns:xlink="http://www.w3.org/1999/xlink">
    <title>交易额</title>
    <defs>
        <filter color-interpolation-filters="auto" id="filter-1">
            <feColorMatrix in="SourceGraphic" type="matrix" values="0 0 0 0 0.000000 0 0 0 0 0.407843 0 0 0 0 0.756863 0 0 0 1.000000 0"></feColorMatrix>
        </filter>
    </defs>
    <g id="官网" stroke="none" stroke-width="1" fill="none" fill-rule="evenodd">
        <g id="交易额">
            <rect id="矩形" x="0" y="0" width="80" height="80"></rect>
            <g filter="url(#filter-1)" id="总交易额">
                <g transform="translate(17.000000, 11.000000)">
                    <path d="M47,15.11875 L47,46.4625 C46.6387327,53.46875 36.1619797,59 23.5176227,59 C10.5119983,59 0.396512743,53.46875 0.0352454003,46.4625 L0.0352454003,13.275 C-0.687289286,5.9 9.78946366,0 23.1563554,0 C36.5232471,0 47,5.9 47,13.275 L47,15.11875 Z M23.1563554,4.425 C11.5958004,4.425 2.92538414,9.21875 2.92538414,13.64375 C2.92538414,18.06875 11.5958004,22.8625 23.1563554,22.8625 C34.7169103,22.8625 43.3873266,18.06875 43.3873266,13.64375 C43.3873266,9.21875 34.7169103,4.425 23.1563554,4.425 Z M43.3873266,21.01875 C39.0521185,24.70625 31.4655042,26.91875 22.795088,26.91875 C14.4859391,26.91875 6.53805758,24.70625 2.5641168,21.01875 L2.5641168,23.23125 C3.64791883,28.025 13.0408698,31.7125 23.1563554,31.7125 C33.271841,31.7125 42.6647919,27.65625 43.7485939,23.23125 L43.7485939,21.01875 L43.3873266,21.01875 L43.3873266,21.01875 Z M43.3873266,29.5 C39.4133858,33.1875 31.4655042,35.4 22.795088,35.4 C14.4859391,35.4 6.89932492,32.81875 2.5641168,29.5 L2.5641168,31.34375 C3.64791883,36.1375 13.0408698,39.825 22.795088,39.825 C32.9105736,39.825 42.3035245,35.76875 43.3873266,31.34375 L43.3873266,29.5 L43.3873266,29.5 Z M43.3873266,37.24375 C39.4133858,40.93125 31.4655042,43.14375 22.795088,43.14375 C14.4859391,43.14375 6.53805758,40.93125 2.5641168,37.24375 L2.5641168,39.0875 C3.64791883,43.88125 13.0408698,47.56875 22.795088,47.56875 C32.9105736,47.56875 42.3035245,43.5125 43.3873266,39.0875 L43.3873266,37.24375 L43.3873266,37.24375 Z M43.3873266,46.4625 L43.3873266,45.35625 C39.4133858,49.04375 31.4655042,51.25625 22.795088,51.25625 C14.4859391,51.25625 6.53805758,49.04375 2.5641168,45.35625 L2.5641168,46.4625 C3.28665149,51.25625 12.6796024,55.3125 23.1563554,55.3125 C33.271841,55.3125 43.0260592,51.25625 43.3873266,46.4625 Z M27.4915635,13.275 C28.5753655,13.64375 29.2979002,14.75 29.2979002,15.4875 C29.2979002,16.9625 28.5753655,17.7 27.1302961,18.4375 C26.0464941,18.80625 24.9626921,19.175 23.87889,19.175 L23.87889,20.65 L22.795088,20.65 L22.795088,19.175 C21.3500186,19.175 19.9049493,18.80625 19.1824146,18.4375 C17.7373452,17.7 17.0148105,16.9625 17.0148105,15.4875 L20.2662166,15.4875 C20.2662166,16.225 20.627484,16.59375 20.627484,16.9625 C20.9887513,17.33125 21.711286,17.7 22.4338207,17.7 L22.4338207,14.0125 L21.711286,13.64375 C20.2662166,13.64375 19.1824146,13.275 18.4598799,12.5375 C17.7373452,12.16875 17.3760779,11.43125 17.3760779,10.69375 C17.3760779,10.325 17.3760779,9.5875 17.7373452,9.21875 L18.8211472,8.1125 C19.5436819,7.74375 19.9049493,7.74375 20.627484,7.375 L22.795088,7.375 L22.795088,6.26875 L23.87889,6.26875 L23.87889,7.375 C24.9626921,7.375 26.0464941,7.74375 26.7690288,8.1125 C28.2140982,8.85 28.9366328,9.5875 28.9366328,10.69375 L25.6852268,10.69375 C25.6852268,10.325 25.3239594,9.95625 25.3239594,9.5875 C24.9626921,9.21875 24.6014247,9.21875 23.87889,9.21875 L23.87889,12.16875 C25.6852268,12.5375 27.1302961,12.90625 27.4915635,13.275 L27.4915635,13.275 Z M23.87889,17.33125 C24.6014247,17.33125 24.9626921,17.33125 25.3239594,16.9625 C25.6852268,16.59375 26.0464941,16.225 26.0464941,15.85625 C26.0464941,15.4875 25.6852268,15.11875 25.3239594,14.75 C24.9626921,14.75 24.6014247,14.38125 23.87889,14.38125 L23.87889,17.33125 L23.87889,17.33125 Z M22.795088,9.21875 C22.0725533,9.21875 21.711286,9.21875 21.3500186,9.5875 C20.627484,9.5875 20.627484,9.95625 20.627484,10.325 C20.627484,10.69375 20.9887513,11.0625 21.3500186,11.43125 C21.711286,11.43125 22.0725533,11.8 22.795088,11.8 L22.795088,9.21875 L22.795088,9.21875 Z" id="形状" fill="#000000" fill-rule="nonzero"></path>
                </g>
            </g>
        </g>
    </g>
</svg>