<?xml version="1.0" encoding="UTF-8"?>
<svg viewBox="0 0 80 80" version="1.1" xmlns="http://www.w3.org/2000/svg" xmlns:xlink="http://www.w3.org/1999/xlink">
    <title>区块</title>
    <g id="官网" stroke="none" stroke-width="1" fill="none" fill-rule="evenodd">
        <g id="区块">
            <rect id="矩形备份-27" x="0" y="0" width="80" height="80"></rect>
            <g transform="translate(8.000000, 12.000000)" fill="#0C6AC1" fill-rule="nonzero" id="形状">
                <path d="M49.8261111,23.300749 L49.8261111,7.37374635 L34.0816667,0 L16.1633333,6.67906563 L16.1633333,23.6842707 L0,29.7120731 L0,49.6986162 L17.9183333,57 L33.67,49.5900724 L33.67,49.5177098 L49.2555556,57 L65,49.5828361 L65,30.4067538 L49.8261111,23.300749 Z M47.4933333,23.7928145 L34.0744444,29.6397105 L34.0744444,17.7433033 L47.4933333,11.7010283 L47.4933333,23.7928145 L47.4933333,23.7928145 Z M34.0816667,3.41551352 L46.4966667,8.87165164 L34.0816667,14.2554272 L20.15,8.87165164 L34.0816667,3.41551352 Z M3.97944444,31.9046591 L17.9111111,26.448521 L30.3333333,31.9046591 L17.9183333,37.2884347 L3.97944444,31.9046591 Z M31.33,47.050146 L17.9183333,53.316745 L17.9183333,40.7763108 L31.3372222,34.7340358 L31.3372222,47.050146 L31.33,47.050146 L31.33,47.050146 Z M36.1761111,31.9046591 L49.2483333,26.448521 L61.6633333,31.9046591 L49.2483333,37.2884347 L36.1761111,31.9046591 Z M62.6672222,47.050146 L49.2483333,53.316745 L49.2483333,40.7763108 L62.6672222,34.7340358 L62.6672222,47.050146 Z"></path>
            </g>
        </g>
    </g>
</svg>